<?xml version="1.0" standalone="no"?>
<!DOCTYPE svg PUBLIC "-//W3C//DTD SVG 20010904//EN"
 "http://www.w3.org/TR/2001/REC-SVG-20010904/DTD/svg10.dtd">
<svg version="1.0" xmlns="http://www.w3.org/2000/svg"
 width="700.000000pt" height="700.000000pt" viewBox="0 0 700.000000 700.000000"
 preserveAspectRatio="xMidYMid meet">
<metadata>
Created by potrace 1.14, written by Peter Selinger 2001-2017
</metadata>
<g transform="translate(0.000000,700.000000) scale(0.100000,-0.100000)"
fill="#000000" stroke="none">
<path d="M2045 6410 c-2 -3 -3 -134 -3 -291 l0 -286 132 -1 c72 0 138 -1 146
-1 13 -1 15 -242 15 -2109 0 -1984 1 -2112 18 -2192 107 -509 514 -884 1019
-939 141 -15 303 -2 438 35 344 95 633 351 769 682 26 64 58 175 77 272 4 19
8 981 9 2138 1 1156 5 2105 9 2109 3 4 69 7 145 7 l139 -1 0 292 1 291 -1455
0 c-800 0 -1457 -2 -1459 -6z m2036 -580 c0 -3 2 -198 2 -434 2 -338 -1 -430
-11 -433 -26 -10 -1152 -8 -1153 2 0 6 -2 201 -2 435 -2 325 1 426 10 430 7 3
269 5 583 5 313 0 570 -2 571 -5z m-144 -1782 c194 -92 193 -414 -1 -513 -53
-27 -69 -30 -145 -30 -99 1 -156 22 -210 77 -71 72 -97 190 -67 301 47 172
246 250 423 165z m-599 -1158 c64 -29 99 -64 132 -133 25 -52 28 -69 26 -141
-4 -150 -74 -239 -211 -271 -108 -26 -219 2 -289 71 -83 84 -104 241 -46 354
17 33 102 119 119 120 3 1 29 7 56 14 66 18 154 12 213 -14z"/>
</g>
</svg>
